<svg width="34" height="34" viewBox="0 0 34 34" fill="none" xmlns="http://www.w3.org/2000/svg">
<path d="M16.6638 32.8739L1.26206 13.6218C0.92777 13.204 0.760627 12.995 0.715721 12.7432C0.670814 12.4915 0.755424 12.2376 0.924643 11.73L3.68345 3.45354C4.1258 2.12648 4.34698 1.46296 4.87354 1.08344C5.4001 0.703915 6.09951 0.703915 7.49835 0.703915H25.8292C27.228 0.703915 27.9274 0.703915 28.454 1.08344C28.9805 1.46296 29.2017 2.12648 29.644 3.45354L32.4029 11.73L32.4029 11.73C32.5721 12.2376 32.6567 12.4915 32.6118 12.7432C32.5669 12.995 32.3997 13.204 32.0654 13.6218L16.6638 32.8739Z" fill="#7E869E" fill-opacity="0.25"/>
<path d="M16.6638 32.8739L1.26206 13.6218C0.92777 13.204 0.760627 12.995 0.715721 12.7432C0.670814 12.4915 0.755424 12.2376 0.924643 11.73L3.68345 3.45354C4.1258 2.12648 4.34698 1.46296 4.87354 1.08344C5.4001 0.703915 6.09951 0.703915 7.49835 0.703915H25.8292C27.228 0.703915 27.9274 0.703915 28.454 1.08344C28.9805 1.46296 29.2017 2.12648 29.644 3.45354L32.4029 11.73C32.5721 12.2376 32.6567 12.4915 32.6118 12.7432C32.5669 12.995 32.3997 13.204 32.0654 13.6218L16.6638 32.8739ZM16.6638 32.8739L23.7009 10.757M16.6638 32.8739L9.62656 10.757M31.7434 12.7677L23.7009 10.757M23.7009 10.757L20.685 2.71454M23.7009 10.757H9.62656M12.6425 2.71454L9.62656 10.757M9.62656 10.757L1.58406 12.7677" stroke="white" stroke-width="1.4" stroke-linecap="round"/>
</svg>
