<svg width="16" height="20" viewBox="0 0 16 20" fill="none" xmlns="http://www.w3.org/2000/svg">
<path fill-rule="evenodd" clip-rule="evenodd" d="M13.806 5H1.97241V7.5C2.69858 7.5 3.28725 8.08867 3.28725 8.81484V12.8981C3.28725 14.3917 3.28725 15.1385 3.54724 15.7216C3.84869 16.3978 4.3895 16.9386 5.06565 17.24C5.64879 17.5 6.39559 17.5 7.8892 17.5C9.3828 17.5 10.1296 17.5 10.7127 17.24C11.3889 16.9386 11.9297 16.3978 12.2312 15.7216C12.4911 15.1385 12.4911 14.3917 12.4911 12.8981V8.81484C12.4911 8.08867 13.0798 7.5 13.806 7.5V5ZM7.24565 9.16667C7.24565 8.61438 6.79793 8.16667 6.24565 8.16667C5.69336 8.16667 5.24565 8.61438 5.24565 9.16667V13.3333C5.24565 13.8856 5.69336 14.3333 6.24565 14.3333C6.79793 14.3333 7.24565 13.8856 7.24565 13.3333V9.16667ZM10.5327 9.16667C10.5327 8.61438 10.085 8.16667 9.53275 8.16667C8.98046 8.16667 8.53275 8.61438 8.53275 9.16667V13.3333C8.53275 13.8856 8.98046 14.3333 9.53275 14.3333C10.085 14.3333 10.5327 13.8856 10.5327 13.3333V9.16667Z" fill="#CA9703"/>
<path d="M6.61898 2.80883C6.69389 2.72023 6.85896 2.64194 7.08859 2.5861C7.31822 2.53027 7.59957 2.5 7.88902 2.5C8.17846 2.5 8.45981 2.53027 8.68944 2.5861C8.91907 2.64194 9.08414 2.72023 9.15906 2.80883" stroke="#CA9703" stroke-width="2" stroke-linecap="round"/>
</svg>
