<svg width="35" height="28" viewBox="0 0 35 28" fill="none" xmlns="http://www.w3.org/2000/svg">
<path d="M7.00001 18.135C8.92502 18.135 10.5 19.4951 10.5 21.1575C10.5 22.8199 8.92502 24.18 7.00001 24.18C5.07501 24.18 3.50001 22.8199 3.50001 21.1575C3.50001 19.4951 5.07501 18.135 7.00001 18.135ZM7.00001 15.1125C3.15001 15.1125 0 17.8327 0 21.1575C0 24.4822 3.15001 27.2025 7.00001 27.2025C10.85 27.2025 14 24.4822 14 21.1575C14 17.8327 10.85 15.1125 7.00001 15.1125ZM17.5 3.0225C19.425 3.0225 21 4.38262 21 6.045C21 7.70737 19.425 9.06749 17.5 9.06749C15.575 9.06749 14 7.70737 14 6.045C14 4.38262 15.575 3.0225 17.5 3.0225ZM17.5 0C13.65 0 10.5 2.72025 10.5 6.045C10.5 9.36974 13.65 12.09 17.5 12.09C21.35 12.09 24.5001 9.36974 24.5001 6.045C24.5001 2.72025 21.35 0 17.5 0ZM28.0001 18.135C29.9251 18.135 31.5001 19.4951 31.5001 21.1575C31.5001 22.8199 29.9251 24.18 28.0001 24.18C26.0751 24.18 24.5001 22.8199 24.5001 21.1575C24.5001 19.4951 26.0751 18.135 28.0001 18.135ZM28.0001 15.1125C24.1501 15.1125 21 17.8327 21 21.1575C21 24.4822 24.1501 27.2025 28.0001 27.2025C31.8501 27.2025 35.0001 24.4822 35.0001 21.1575C35.0001 17.8327 31.8501 15.1125 28.0001 15.1125Z" fill="#EEEEEE"/>
</svg>
