<svg width="35" height="28" viewBox="0 0 35 28" fill="none" xmlns="http://www.w3.org/2000/svg">
<path fill-rule="evenodd" clip-rule="evenodd" d="M19.4443 7.55624V1.51125C19.4443 0.680062 20.3193 0 21.3887 0H33.0554C34.1249 0 34.9999 0.680062 34.9999 1.51125V7.55624C34.9999 8.38743 34.1249 9.06749 33.0554 9.06749H21.3887C20.3193 9.06749 19.4443 8.38743 19.4443 7.55624ZM13.6112 15.1125H1.9445C0.875049 15.1125 4.70696e-05 14.4324 4.70696e-05 13.6012V1.51125C4.70696e-05 0.680066 0.875049 3.75583e-06 1.9445 3.75583e-06H13.6112C14.6806 3.75583e-06 15.5556 0.680066 15.5556 1.51125V13.6012C15.5556 14.4324 14.6806 15.1125 13.6112 15.1125ZM13.6111 27.2025H1.94445C0.875002 27.2025 0 26.5225 0 25.6913V19.6463C0 18.8151 0.875002 18.135 1.94445 18.135H13.6111C14.6806 18.135 15.5556 18.8151 15.5556 19.6463V25.6913C15.5556 26.5225 14.6806 27.2025 13.6111 27.2025ZM21.3889 27.2025H33.0556C34.125 27.2025 35 26.5224 35 25.6912V13.6012C35 12.77 34.125 12.09 33.0556 12.09H21.3889C20.3194 12.09 19.4444 12.77 19.4444 13.6012V25.6912C19.4444 26.5224 20.3194 27.2025 21.3889 27.2025Z" fill="#EEEEEE"/>
</svg>
