<svg width="35" height="28" viewBox="0 0 35 28" fill="none" xmlns="http://www.w3.org/2000/svg">
<path d="M18.5161 17.1235V25.7626C18.5161 26.5545 19.3493 27.2025 20.3677 27.2025H31.4774C32.4958 27.2025 33.329 26.5545 33.329 25.7626V17.1235C33.329 16.3316 32.4958 15.6836 31.4774 15.6836H20.3677C19.3493 15.6836 18.5161 16.3316 18.5161 17.1235ZM1.85161 27.2025H12.9613C13.9797 27.2025 14.8129 26.5545 14.8129 25.7626V17.1235C14.8129 16.3316 13.9797 15.6836 12.9613 15.6836H1.85161C0.833225 15.6836 0 16.3316 0 17.1235V25.7626C0 26.5545 0.833225 27.2025 1.85161 27.2025ZM0 2.72493V11.3641C0 12.156 0.833225 12.8039 1.85161 12.8039H12.9613C13.9797 12.8039 14.8129 12.156 14.8129 11.3641V2.72493C14.8129 1.93301 13.9797 1.28507 12.9613 1.28507H1.85161C0.833225 1.28507 0 1.93301 0 2.72493ZM23.9784 0.421158L16.109 6.52615C15.3869 7.08769 15.3869 7.9948 16.109 8.55634L23.9784 14.6757C24.7005 15.2373 25.867 15.2373 26.5891 14.6757L34.4585 8.55634C35.1806 7.9948 35.1806 7.08769 34.4585 6.52615L26.6076 0.421158C25.8855 -0.140386 24.7005 -0.140386 23.9784 0.421158Z" fill="#EEEEEE"/>
</svg>
