<svg width="34" height="34" viewBox="0 0 34 34" fill="none" xmlns="http://www.w3.org/2000/svg">
<path d="M9.91663 21.2509L9.91663 22.2526L8.91491 22.2526L8.91491 21.2509L9.91663 21.2509ZM27.6248 14.8759C28.016 15.2671 28.016 15.9014 27.6248 16.2926C27.2336 16.6838 26.5994 16.6838 26.2082 16.2926L27.6248 14.8759ZM16.9999 22.2526L9.91663 22.2526L9.91663 20.2491L16.9999 20.2491L16.9999 22.2526ZM8.91491 21.2509L8.91491 14.1676L10.9184 14.1676L10.9184 21.2509L8.91491 21.2509ZM9.2083 20.5425L16.2916 13.4593L17.7082 14.8759L10.625 21.9592L9.2083 20.5425ZM26.2082 13.4593L27.6248 14.8759L26.2082 16.2926L24.7915 14.8759L26.2082 13.4593ZM16.2916 13.4593C19.03 10.7209 23.4698 10.7209 26.2082 13.4593L24.7915 14.8759C22.8355 12.9199 19.6642 12.9199 17.7082 14.8759L16.2916 13.4593Z" fill="#CA9703"/>
</svg>
