<svg width="20" height="19" viewBox="0 0 20 19" fill="none" xmlns="http://www.w3.org/2000/svg">
<path fill-rule="evenodd" clip-rule="evenodd" d="M11.7392 2.32088C11.7568 2.39051 11.7657 2.47265 11.7833 2.63692C11.8155 2.93609 11.8315 3.08567 11.8632 3.18465C12.0522 3.77436 12.7186 4.06122 13.2768 3.79313C13.3705 3.74813 13.4901 3.657 13.7295 3.47473L13.7295 3.47471L13.8441 3.38746L13.8442 3.38745C14.0196 3.25385 14.1074 3.18704 14.1945 3.14379C14.5122 2.98617 14.8889 3.00478 15.1895 3.19294C15.272 3.24457 15.3527 3.31969 15.5142 3.46994L15.5142 3.46995L16.2596 4.16368C16.3389 4.23746 16.3786 4.27436 16.4094 4.30873C16.7311 4.66755 16.7579 5.20251 16.4737 5.59169C16.4464 5.62898 16.4107 5.66965 16.3392 5.75099C16.2068 5.90153 16.1406 5.9768 16.1039 6.03145C15.7033 6.6268 16.0261 7.43872 16.7261 7.59652C16.7903 7.611 16.8901 7.62029 17.0897 7.63886L17.2325 7.65215L17.2325 7.65215C17.3964 7.66741 17.4784 7.67503 17.5478 7.69145C17.9569 7.78827 18.2648 8.12613 18.3233 8.54249C18.3332 8.61312 18.3332 8.69542 18.3332 8.86004V9.75126C18.3332 9.91578 18.3332 9.99804 18.3233 10.0686C18.2648 10.485 17.9569 10.823 17.5477 10.9198C17.4783 10.9362 17.3964 10.9438 17.2326 10.959L17.0897 10.9723C16.8904 10.9909 16.7907 11.0002 16.7265 11.0146C16.0264 11.1723 15.7035 11.9845 16.1043 12.5798C16.141 12.6344 16.2071 12.7096 16.3393 12.86L16.3393 12.86C16.4107 12.9412 16.4464 12.9818 16.4736 13.0191C16.7579 13.4083 16.7311 13.9434 16.4093 14.3022C16.3786 14.3365 16.339 14.3734 16.2598 14.4471L16.2598 14.4471L15.5142 15.1409L15.5142 15.1409C15.3527 15.2912 15.272 15.3663 15.1895 15.4179C14.889 15.6061 14.5122 15.6247 14.1946 15.4671C14.1074 15.4238 14.0197 15.357 13.8442 15.2234L13.7298 15.1363C13.4902 14.9539 13.3704 14.8627 13.2767 14.8177C12.7185 14.5497 12.0523 14.8365 11.8633 15.4261C11.8316 15.5251 11.8155 15.6748 11.7833 15.9741L11.7833 15.9742C11.7657 16.1385 11.7568 16.2207 11.7392 16.2904C11.6376 16.6921 11.3032 16.9925 10.893 17.0506C10.8218 17.0607 10.7392 17.0607 10.5738 17.0607H9.42591C9.26068 17.0607 9.17806 17.0607 9.10695 17.0506C8.69662 16.9925 8.36216 16.6921 8.2606 16.2903C8.243 16.2207 8.23417 16.1385 8.21652 15.9743C8.18437 15.6751 8.16829 15.5255 8.13658 15.4265C7.94763 14.8368 7.28127 14.5499 6.72308 14.818C6.62938 14.863 6.50968 14.9542 6.27026 15.1365L6.15565 15.2237C5.98015 15.3574 5.8924 15.4242 5.80522 15.4674C5.48756 15.625 5.11086 15.6064 4.81029 15.4183C4.72779 15.3666 4.64705 15.2915 4.48557 15.1412L3.74014 14.4475C3.66085 14.3737 3.62121 14.3368 3.59039 14.3025C3.2687 13.9437 3.24189 13.4087 3.52611 13.0195C3.55334 12.9822 3.58909 12.9416 3.66061 12.8602C3.79297 12.7097 3.85916 12.6344 3.89593 12.5797C4.29651 11.9844 3.97372 11.1725 3.27372 11.0147C3.20946 11.0002 3.10966 10.9909 2.91006 10.9723L2.7673 10.959C2.60342 10.9438 2.52147 10.9362 2.45208 10.9197C2.04292 10.8229 1.73503 10.4851 1.67654 10.0687C1.66663 9.99807 1.66663 9.91577 1.66663 9.75117L1.66663 8.86012C1.66663 8.69543 1.66663 8.61308 1.67656 8.54243C1.73506 8.12612 2.0429 7.7883 2.452 7.69147C2.52143 7.67503 2.60342 7.6674 2.7674 7.65214L2.9101 7.63887L2.91013 7.63886C3.10995 7.62027 3.20986 7.61097 3.27418 7.59646C3.97403 7.43858 4.29674 6.62686 3.89633 6.03156C3.85952 5.97684 3.79326 5.90147 3.66074 5.75074L3.66074 5.75074C3.58914 5.6693 3.55334 5.62858 3.52608 5.59125C3.24196 5.20211 3.26876 4.66726 3.59036 4.30846C3.62121 4.27404 3.6609 4.23711 3.74028 4.16323L4.48561 3.46962C4.64709 3.31935 4.72782 3.24421 4.81033 3.19257C5.1109 3.00443 5.4876 2.98582 5.80525 3.14343C5.89244 3.18669 5.98019 3.2535 6.15569 3.38712L6.15569 3.38713L6.27048 3.47453L6.27049 3.47454C6.50974 3.6567 6.62937 3.74779 6.723 3.79277C7.28125 4.06097 7.94776 3.77406 8.13666 3.18423C8.16834 3.08531 8.1844 2.93582 8.21653 2.63684L8.21653 2.63682C8.23417 2.47264 8.24299 2.39055 8.26058 2.32096C8.36212 1.91911 8.69664 1.61861 9.10704 1.56058C9.17811 1.55053 9.26067 1.55053 9.4258 1.55053H10.5739C10.7392 1.55053 10.8218 1.55053 10.8929 1.56059C11.3032 1.61864 11.6377 1.9191 11.7392 2.32088ZM9.99992 12.4076C11.8409 12.4076 13.3332 11.0188 13.3332 9.3056C13.3332 7.5924 11.8409 6.20357 9.99992 6.20357C8.15898 6.20357 6.6666 7.5924 6.6666 9.3056C6.6666 11.0188 8.15898 12.4076 9.99992 12.4076Z" fill="#CA9703"/>
</svg>
