<svg width="26" height="25" viewBox="0 0 26 25" fill="none" xmlns="http://www.w3.org/2000/svg">
<ellipse cx="12.683" cy="9.37565" rx="4.22764" ry="4.16667" fill="#CA9703"/>
<ellipse cx="17.9674" cy="9.375" rx="3.17073" ry="3.125" fill="#CA9703"/>
<ellipse cx="7.39827" cy="9.375" rx="3.17073" ry="3.125" fill="#CA9703"/>
<path fill-rule="evenodd" clip-rule="evenodd" d="M18.5684 18.7493H21.0886C21.6808 18.7493 22.1345 18.2388 21.9912 17.6642C21.6107 16.1378 20.5796 13.541 17.9676 13.541C17.0311 13.541 16.2978 13.8748 15.7249 14.3735C17.3184 15.3924 18.1423 17.1767 18.5684 18.7493Z" fill="#CA9703"/>
<path fill-rule="evenodd" clip-rule="evenodd" d="M9.64115 14.3734C9.06822 13.8748 8.33493 13.541 7.39842 13.541C4.78641 13.541 3.75527 16.1378 3.37478 17.6642C3.23154 18.2388 3.68516 18.7493 4.27736 18.7493H6.79762C7.22364 17.1767 8.0476 15.3924 9.64115 14.3734Z" fill="#CA9703"/>
<path d="M12.683 14.584C16.6326 14.584 17.6303 18.0751 17.8824 19.839C17.9605 20.3857 17.5198 20.834 16.9675 20.834H8.39844C7.84615 20.834 7.4055 20.3857 7.48363 19.839C7.73567 18.0751 8.73341 14.584 12.683 14.584Z" fill="#CA9703"/>
</svg>
