<svg width="20" height="20" viewBox="0 0 20 20" fill="none" xmlns="http://www.w3.org/2000/svg">
<path d="M10 0C8.02219 0 6.08879 0.58649 4.4443 1.6853C2.79981 2.78412 1.51809 4.3459 0.761209 6.17316C0.00433284 8.00042 -0.1937 10.0111 0.192152 11.9509C0.578004 13.8907 1.53041 15.6725 2.92894 17.0711C4.32746 18.4696 6.10929 19.422 8.0491 19.8078C9.98891 20.1937 11.9996 19.9957 13.8268 19.2388C15.6541 18.4819 17.2159 17.2002 18.3147 15.5557C19.4135 13.9112 20 11.9778 20 10C19.997 7.34876 18.9425 4.80696 17.0678 2.93225C15.193 1.05754 12.6512 0.00300303 10 0ZM10 18.4615C8.32647 18.4615 6.69052 17.9653 5.29902 17.0355C3.90753 16.1057 2.823 14.7842 2.18256 13.2381C1.54213 11.6919 1.37456 9.99061 1.70105 8.34923C2.02754 6.70786 2.83343 5.20016 4.01679 4.01679C5.20016 2.83342 6.70786 2.02754 8.34924 1.70105C9.99062 1.37456 11.6919 1.54212 13.2381 2.18256C14.7842 2.82299 16.1057 3.90753 17.0355 5.29902C17.9653 6.69051 18.4615 8.32646 18.4615 10C18.459 12.2434 17.5667 14.3941 15.9804 15.9804C14.3941 17.5667 12.2434 18.459 10 18.4615ZM12.0634 9.86009C12.7096 10.5099 13.0718 11.3894 13.0706 12.3058C13.0693 13.2222 12.7047 14.1008 12.0567 14.7488C11.4087 15.3968 10.5301 15.7614 9.61369 15.7626C8.69727 15.7639 7.81775 15.4016 7.16798 14.7554C7.02372 14.6111 6.94268 14.4155 6.94268 14.2114C6.94268 14.0074 7.02372 13.8118 7.16798 13.6675C7.31225 13.5232 7.50791 13.4422 7.71193 13.4422C7.91594 13.4422 8.11161 13.5232 8.25587 13.6675C8.47949 13.8911 8.75481 14.0561 9.05745 14.148C9.36008 14.2398 9.68069 14.2555 9.99087 14.1938C10.301 14.1321 10.5912 13.9949 10.8357 13.7942C11.0802 13.5936 11.2714 13.3358 11.3924 13.0436C11.5134 12.7514 11.5605 12.4339 11.5295 12.1192C11.4985 11.8045 11.3904 11.5022 11.2147 11.2393C11.039 10.9763 10.8011 10.7608 10.5222 10.6117C10.2433 10.4626 9.93193 10.3846 9.61568 10.3846C9.47496 10.3846 9.33694 10.346 9.21664 10.2731C9.09633 10.2001 8.99835 10.0955 8.93335 9.97069C8.86836 9.84588 8.83884 9.70564 8.84802 9.56523C8.85719 9.42482 8.90471 9.28961 8.98539 9.17433L10.8304 6.53779H7.69202C7.48801 6.53779 7.29235 6.45674 7.14809 6.31248C7.00384 6.16823 6.92279 5.97257 6.92279 5.76856C6.92279 5.56454 7.00384 5.36889 7.14809 5.22463C7.29235 5.08037 7.48801 4.99933 7.69202 4.99933H12.3074C12.4481 4.99933 12.5861 5.03792 12.7064 5.11089C12.8267 5.18387 12.9247 5.28844 12.9896 5.41323C13.0546 5.53802 13.0842 5.67824 13.075 5.81864C13.0658 5.95904 13.0183 6.09423 12.9377 6.20952L10.9166 9.09798C11.3461 9.2725 11.7361 9.53169 12.0634 9.86009Z" fill="#9E9E9E"/>
</svg>
