<svg width="20" height="20" viewBox="0 0 20 20" fill="none" xmlns="http://www.w3.org/2000/svg">
<path d="M10 0C8.02219 0 6.08879 0.58649 4.4443 1.6853C2.79981 2.78412 1.51809 4.3459 0.761209 6.17317C0.00433285 8.00043 -0.193701 10.0111 0.192152 11.9509C0.578004 13.8907 1.53041 15.6725 2.92894 17.0711C4.32746 18.4696 6.10929 19.422 8.0491 19.8079C9.98891 20.1937 11.9996 19.9957 13.8268 19.2388C15.6541 18.4819 17.2159 17.2002 18.3147 15.5557C19.4135 13.9112 20 11.9778 20 10C19.997 7.34876 18.9425 4.80696 17.0678 2.93225C15.193 1.05754 12.6512 0.00300303 10 0ZM10 18.4615C8.32647 18.4615 6.69052 17.9653 5.29903 17.0355C3.90753 16.1057 2.823 14.7842 2.18256 13.2381C1.54213 11.6919 1.37456 9.99061 1.70105 8.34924C2.02754 6.70786 2.83343 5.20016 4.01679 4.01679C5.20016 2.83342 6.70786 2.02754 8.34924 1.70105C9.99062 1.37456 11.692 1.54212 13.2381 2.18256C14.7842 2.82299 16.1058 3.90753 17.0355 5.29902C17.9653 6.69051 18.4615 8.32647 18.4615 10C18.459 12.2434 17.5667 14.3941 15.9804 15.9804C14.3941 17.5667 12.2434 18.459 10 18.4615ZM11.1539 5.76923V14.6154C11.1539 14.8194 11.0728 15.0151 10.9285 15.1593C10.7843 15.3036 10.5886 15.3846 10.3846 15.3846C10.1806 15.3846 9.98495 15.3036 9.84069 15.1593C9.69643 15.0151 9.61539 14.8194 9.61539 14.6154V7.20615L8.50356 7.94712C8.41952 8.00378 8.3251 8.04327 8.22574 8.06332C8.12638 8.08337 8.02404 8.08359 7.9246 8.06396C7.82515 8.04433 7.73057 8.00524 7.64628 7.94894C7.562 7.89264 7.48967 7.82023 7.43346 7.73589C7.37725 7.65154 7.33826 7.55691 7.31874 7.45745C7.29921 7.35799 7.29954 7.25564 7.3197 7.15631C7.33986 7.05697 7.37945 6.9626 7.4362 6.87861C7.49295 6.79463 7.56574 6.72269 7.65039 6.66692L9.95808 5.12913C10.0739 5.05194 10.2086 5.00763 10.3476 5.00094C10.4867 4.99424 10.6249 5.0254 10.7476 5.0911C10.8704 5.1568 10.973 5.25457 11.0445 5.37399C11.1161 5.49342 11.1538 5.63002 11.1539 5.76923Z" fill="#F87515"/>
</svg>
