<svg width="24" height="24" viewBox="0 0 24 24" fill="none" xmlns="http://www.w3.org/2000/svg">
<rect width="24" height="24" rx="12" fill="white"/>
<path d="M12 21C16.9706 21 21 16.9706 21 12C21 7.02944 16.9706 3 12 3C7.02944 3 3 7.02944 3 12C3 16.9706 7.02944 21 12 21Z" fill="white"/>
<path d="M12 2.25C10.0716 2.25 8.18657 2.82183 6.58319 3.89317C4.97982 4.96451 3.73013 6.48726 2.99218 8.26884C2.25422 10.0504 2.06114 12.0108 2.43735 13.9021C2.81355 15.7934 3.74215 17.5307 5.10571 18.8943C6.46928 20.2579 8.20656 21.1865 10.0979 21.5627C11.9892 21.9389 13.9496 21.7458 15.7312 21.0078C17.5127 20.2699 19.0355 19.0202 20.1068 17.4168C21.1782 15.8134 21.75 13.9284 21.75 12C21.7471 9.41504 20.7189 6.93679 18.8911 5.10894C17.0632 3.2811 14.585 2.25293 12 2.25ZM12 20.25C10.3683 20.25 8.77326 19.7661 7.41655 18.8596C6.05984 17.9531 5.00242 16.6646 4.378 15.1571C3.75358 13.6496 3.5902 11.9908 3.90853 10.3905C4.22685 8.79016 5.01259 7.32015 6.16637 6.16637C7.32016 5.01259 8.79017 4.22685 10.3905 3.90852C11.9909 3.59019 13.6497 3.75357 15.1571 4.37799C16.6646 5.00242 17.9531 6.05984 18.8596 7.41655C19.7661 8.77325 20.25 10.3683 20.25 12C20.2475 14.1873 19.3775 16.2843 17.8309 17.8309C16.2843 19.3775 14.1873 20.2475 12 20.25ZM13.125 7.875V16.5C13.125 16.6989 13.046 16.8897 12.9053 17.0303C12.7647 17.171 12.5739 17.25 12.375 17.25C12.1761 17.25 11.9853 17.171 11.8447 17.0303C11.704 16.8897 11.625 16.6989 11.625 16.5V9.276L10.541 9.99844C10.459 10.0537 10.367 10.0922 10.2701 10.1117C10.1732 10.1313 10.0734 10.1315 9.97648 10.1124C9.87953 10.0932 9.78731 10.0551 9.70513 10.0002C9.62295 9.94532 9.55243 9.87473 9.49762 9.79249C9.44281 9.71025 9.4048 9.61799 9.38577 9.52101C9.36673 9.42404 9.36705 9.32425 9.38671 9.2274C9.40636 9.13055 9.44496 9.03853 9.5003 8.95665C9.55563 8.87476 9.6266 8.80462 9.70913 8.75025L11.9591 7.25091C12.0721 7.17564 12.2033 7.13244 12.3389 7.12591C12.4745 7.11938 12.6093 7.14976 12.729 7.21382C12.8486 7.27788 12.9487 7.37321 13.0184 7.48965C13.0882 7.60608 13.125 7.73927 13.125 7.875Z" fill="#F87515"/>
</svg>
