<svg width="30" height="40" viewBox="0 0 30 40" fill="none" xmlns="http://www.w3.org/2000/svg">
<path fill-rule="evenodd" clip-rule="evenodd" d="M26.25 10H3.75V15C4.21466 15 4.44698 15 4.64018 15.0384C5.43356 15.1962 6.05376 15.8164 6.21157 16.6098C6.25 16.803 6.25 17.0353 6.25 17.5V29C6.25 31.8284 6.25 33.2426 7.12868 34.1213C8.00736 35 9.42157 35 12.25 35H17.75C20.5784 35 21.9926 35 22.8713 34.1213C23.75 33.2426 23.75 31.8284 23.75 29V17.5C23.75 17.0353 23.75 16.803 23.7884 16.6098C23.9462 15.8164 24.5664 15.1962 25.3598 15.0384C25.553 15 25.7853 15 26.25 15V10ZM12.875 18.3333C12.875 17.781 12.4273 17.3333 11.875 17.3333C11.3227 17.3333 10.875 17.781 10.875 18.3333V26.6667C10.875 27.219 11.3227 27.6667 11.875 27.6667C12.4273 27.6667 12.875 27.219 12.875 26.6667V18.3333ZM19.125 18.3333C19.125 17.781 18.6773 17.3333 18.125 17.3333C17.5727 17.3333 17.125 17.781 17.125 18.3333V26.6667C17.125 27.219 17.5727 27.6667 18.125 27.6667C18.6773 27.6667 19.125 27.219 19.125 26.6667V18.3333Z" fill="white"/>
<path d="M12.5852 5.61765C12.7276 5.44046 13.0415 5.28388 13.4781 5.17221C13.9147 5.06053 14.4497 5 15 5C15.5503 5 16.0853 5.06053 16.5219 5.17221C16.9585 5.28388 17.2724 5.44046 17.4148 5.61765" stroke="white" stroke-width="2" stroke-linecap="round"/>
</svg>
