<svg width="24" height="24" viewBox="0 0 24 24" fill="none" xmlns="http://www.w3.org/2000/svg">
<path fill-rule="evenodd" clip-rule="evenodd" d="M13.79 3.34761V3.34762L13.7958 3.40791C13.8689 4.15718 13.9055 4.53181 14.0491 4.74297C14.2752 5.07533 14.6783 5.24002 15.0725 5.16103C15.3229 5.11085 15.6113 4.86898 16.1881 4.38523C16.4952 4.12771 16.6487 3.99894 16.8119 3.93874C17.0677 3.84439 17.3509 3.85854 17.596 3.97793C17.7523 4.0541 17.8923 4.19754 18.1721 4.4844L19.0439 5.378C19.3504 5.69214 19.5037 5.84921 19.5773 6.02754C19.6653 6.24043 19.6771 6.47715 19.6107 6.69771C19.5551 6.88247 19.4182 7.05397 19.1444 7.39698L19.1065 7.44437C18.6175 8.05698 18.373 8.36329 18.334 8.63134C18.2806 8.99799 18.4343 9.3641 18.7334 9.58274C18.9521 9.7426 19.342 9.78256 20.1218 9.86249C20.5391 9.90526 20.7477 9.92665 20.9116 10.0088C21.1357 10.1212 21.3094 10.3136 21.3983 10.5479C21.4634 10.7194 21.4634 10.9291 21.4634 11.3486V12.6515C21.4634 13.0709 21.4634 13.2806 21.3983 13.452C21.3094 13.6864 21.1357 13.8788 20.9116 13.9912C20.7477 14.0734 20.5391 14.0947 20.1219 14.1375L20.1219 14.1375C19.3423 14.2174 18.9526 14.2574 18.7339 14.4171C18.4347 14.6358 18.2809 15.002 18.3344 15.3688C18.3734 15.6367 18.6179 15.943 19.1067 16.5554L19.1445 16.6027L19.1445 16.6027C19.4182 16.9456 19.5551 17.117 19.6107 17.3017C19.6771 17.5224 19.6654 17.7592 19.5773 17.9721C19.5037 18.1504 19.3505 18.3074 19.0441 18.6214L18.1722 19.5152C17.8923 19.802 17.7524 19.9455 17.596 20.0216C17.3509 20.141 17.0677 20.1552 16.812 20.0608C16.6488 20.0006 16.4952 19.8719 16.1881 19.6143L16.1881 19.6143C15.6113 19.1306 15.3229 18.8887 15.0725 18.8385C14.6784 18.7595 14.2753 18.9242 14.0492 19.2566C13.9055 19.4678 13.869 19.8424 13.7959 20.5916L13.79 20.6522C13.7492 21.0706 13.7288 21.2798 13.6472 21.4442C13.5353 21.6701 13.3421 21.8453 13.1064 21.9348C12.9348 22 12.7247 22 12.3043 22H11.1101C10.6899 22 10.4798 22 10.3082 21.9349C10.0725 21.8453 9.87925 21.67 9.76725 21.4441C9.68578 21.2797 9.66537 21.0706 9.62457 20.6524L9.61869 20.5921C9.54559 19.8428 9.50904 19.4681 9.36538 19.257C9.1393 18.9246 8.73621 18.7599 8.34211 18.8389C8.09168 18.8891 7.80324 19.131 7.22638 19.6148C6.91928 19.8723 6.76573 20.0011 6.60252 20.0613C6.34677 20.1556 6.06359 20.1415 5.81852 20.0221C5.66213 19.9459 5.52219 19.8025 5.2423 19.5156L4.37053 18.622C4.06404 18.3079 3.9108 18.1508 3.83711 17.9725C3.74915 17.7596 3.73738 17.5229 3.80378 17.3023C3.8594 17.1175 3.9963 16.946 4.27011 16.603L4.30797 16.5556C4.79695 15.943 5.04144 15.6367 5.08047 15.3687C5.13387 15.002 4.98015 14.6359 4.68102 14.4172C4.46234 14.2574 4.07247 14.2174 3.29275 14.1375H3.29274C2.87545 14.0947 2.66681 14.0734 2.5029 13.9912C2.27884 13.8788 2.10515 13.6864 2.01622 13.452C1.95117 13.2806 1.95117 13.0709 1.95117 12.6514L1.95117 11.3487C1.95117 10.9291 1.95117 10.7193 2.01626 10.5479C2.10519 10.3136 2.27883 10.1212 2.50282 10.0089C2.66676 9.92665 2.87546 9.90526 3.29287 9.86248C4.07281 9.78253 4.46278 9.74256 4.6815 9.58264C4.98052 9.36401 5.13419 8.99799 5.08086 8.63143C5.04185 8.36331 4.7973 8.05693 4.30818 7.44418L4.30818 7.44418L4.27025 7.39666C3.99635 7.05353 3.8594 6.88196 3.80378 6.69712C3.73744 6.47664 3.74921 6.24003 3.8371 6.02722C3.91079 5.84881 4.06409 5.69168 4.37069 5.37742L5.24234 4.48397C5.52223 4.19708 5.66218 4.05364 5.81857 3.97746C6.06363 3.85809 6.34681 3.84394 6.60256 3.93828C6.76577 3.99848 6.91932 4.12725 7.22642 4.3848C7.80329 4.86858 8.09172 5.11047 8.34215 5.16065C8.73626 5.23961 9.13934 5.07494 9.36542 4.74261C9.50908 4.53143 9.54563 4.15678 9.61874 3.40746V3.40746L9.62459 3.34749C9.66538 2.9294 9.68577 2.72036 9.7672 2.55602C9.8792 2.32997 10.0725 2.15461 10.3084 2.06509C10.4798 2 10.6899 2 11.1099 2H12.3045C12.7247 2 12.9348 2 13.1063 2.06513C13.3421 2.15465 13.5353 2.32996 13.6473 2.55592C13.7288 2.7203 13.7492 2.9294 13.79 3.34761ZM11.7073 16C13.8625 16 15.6097 14.2091 15.6097 12C15.6097 9.79086 13.8625 8 11.7073 8C9.55201 8 7.80483 9.79086 7.80483 12C7.80483 14.2091 9.55201 16 11.7073 16Z" fill="#CA9703"/>
</svg>
