<svg width="35" height="28" viewBox="0 0 35 28" fill="none" xmlns="http://www.w3.org/2000/svg">
<path d="M17.4257 16.4801C22.4295 16.4801 26.7021 17.0966 26.7021 19.5639C26.7021 22.0301 22.4569 22.6691 17.4257 22.6691C12.4219 22.6691 8.14931 22.0525 8.14931 19.5863C8.14931 17.1191 12.3945 16.4801 17.4257 16.4801ZM25.4262 14.9945C27.3392 14.9669 29.3958 15.171 30.1558 15.316C31.7658 15.562 32.8248 16.0642 33.2636 16.7941C33.6344 17.3933 33.6344 18.0884 33.2636 18.6866C32.5924 19.8187 30.4287 20.1821 29.5878 20.276C29.4141 20.2964 29.2744 20.179 29.2927 20.0432C29.7223 16.9064 26.305 15.4191 25.421 15.0771C25.3831 15.0618 25.3753 15.0383 25.3792 15.0241C25.3818 15.0138 25.3975 14.9975 25.4262 14.9945ZM9.21462 14.9923L9.57485 14.9949C9.60358 14.9979 9.61794 15.0143 9.62055 15.0234C9.62447 15.0388 9.61663 15.0612 9.58007 15.0775C8.69474 15.4195 5.27747 16.9068 5.70707 20.0426C5.72536 20.1794 5.58694 20.2958 5.41327 20.2764C4.57234 20.1825 2.40863 19.8191 1.73745 18.687C1.3653 18.0878 1.3653 17.3937 1.73745 16.7945C2.1762 16.0646 3.23389 15.5624 4.84394 15.3154C5.60522 15.1715 7.66055 14.9673 9.57485 14.9949L9.21462 14.9923ZM17.4257 4.5341C20.8325 4.5341 23.5643 6.66754 23.5643 9.33177C23.5643 11.995 20.8325 14.1305 17.4257 14.1305C14.0189 14.1305 11.2871 11.995 11.2871 9.33177C11.2871 6.66754 14.0189 4.5341 17.4257 4.5341ZM25.7592 5.33419C29.0498 5.33419 31.634 7.75446 30.7539 10.4503C30.1597 12.2653 28.0091 13.4708 25.6129 13.4218C25.3727 13.4167 25.1363 13.3994 24.9078 13.3688C24.742 13.3463 24.6584 13.2003 24.7524 13.0921C25.6665 12.0407 26.1875 10.776 26.1875 9.41834C26.1875 8.00149 25.6181 6.6806 24.6297 5.59755C24.5983 5.56387 24.5748 5.51181 24.6062 5.47302C24.6323 5.44137 24.6806 5.42504 24.7263 5.41688C25.0593 5.36379 25.4014 5.33419 25.7592 5.33419ZM9.23991 5.33409C9.5977 5.33409 9.93982 5.36369 10.2741 5.41677C10.3185 5.42494 10.3681 5.44229 10.3942 5.47292C10.4243 5.51171 10.4021 5.56377 10.3707 5.59745C9.38224 6.6805 8.81292 8.00139 8.81292 9.41823C8.81292 10.7759 9.33393 12.0406 10.248 13.092C10.342 13.2002 10.2584 13.3462 10.0926 13.3687C9.86278 13.4003 9.62773 13.4166 9.38747 13.4217C6.99133 13.4707 4.84068 12.2652 4.24654 10.4502C3.36513 7.75436 5.9493 5.33409 9.23991 5.33409Z" fill="#EFF2F4"/>
</svg>
