<svg width="19" height="19" viewBox="0 0 19 19" fill="none" xmlns="http://www.w3.org/2000/svg">
<path fill-rule="evenodd" clip-rule="evenodd" d="M7.91675 0.958984C6.25989 0.958984 4.91675 2.30213 4.91675 3.95898L4.91678 3.97225C4.43808 3.99506 4.12295 4.05709 3.87043 4.22582C3.69754 4.34134 3.54911 4.48978 3.43359 4.66266C3.16675 5.06202 3.16675 5.61795 3.16675 6.72982V14.2507C3.16675 15.7434 3.16675 16.4898 3.6305 16.9536C4.09424 17.4173 4.84063 17.4173 6.33341 17.4173H12.6667C14.1595 17.4173 14.9059 17.4173 15.3697 16.9536C15.8334 16.4898 15.8334 15.7434 15.8334 14.2507V6.72982C15.8334 5.61795 15.8334 5.06202 15.5666 4.66266C15.4511 4.48978 15.3026 4.34134 15.1297 4.22582C14.8772 4.05709 14.5621 3.99506 14.0834 3.97225L14.0834 3.95898C14.0834 2.30213 12.7403 0.958984 11.0834 0.958984H7.91675ZM7.70841 3.95898C7.70841 3.4067 8.15613 2.95898 8.70841 2.95898H10.2917C10.844 2.95898 11.2917 3.4067 11.2917 3.95898C11.2917 4.51127 10.844 4.95898 10.2917 4.95898H8.70841C8.15613 4.95898 7.70841 4.51127 7.70841 3.95898ZM7.12508 8.50065C6.5728 8.50065 6.12508 8.94837 6.12508 9.50065C6.12508 10.0529 6.5728 10.5007 7.12508 10.5007H11.8751C12.4274 10.5007 12.8751 10.0529 12.8751 9.50065C12.8751 8.94837 12.4274 8.50065 11.8751 8.50065H7.12508ZM7.12508 11.6673C6.5728 11.6673 6.12508 12.115 6.12508 12.6673C6.12508 13.2196 6.5728 13.6673 7.12508 13.6673L10.2917 13.6673C10.844 13.6673 11.2917 13.2196 11.2917 12.6673C11.2917 12.115 10.844 11.6673 10.2917 11.6673L7.12508 11.6673Z" fill="#CA9703"/>
</svg>
