<svg width="23" height="20" viewBox="0 0 23 20" fill="none" xmlns="http://www.w3.org/2000/svg">
<path d="M2.79419 10C2.79419 6.71252 2.79419 5.06878 3.70215 3.96243C3.86836 3.75989 4.05408 3.57418 4.25662 3.40796C5.36297 2.5 7.00671 2.5 10.2942 2.5H12.0589C15.3464 2.5 16.9901 2.5 18.0965 3.40796C18.299 3.57418 18.4847 3.75989 18.6509 3.96243C19.5589 5.06878 19.5589 6.71252 19.5589 10V10C19.5589 13.2875 19.5589 14.9312 18.6509 16.0376C18.4847 16.2401 18.299 16.4258 18.0965 16.592C16.9901 17.5 15.3464 17.5 12.0589 17.5H10.2942C7.00671 17.5 5.36297 17.5 4.25662 16.592C4.05408 16.4258 3.86836 16.2401 3.70215 16.0376C2.79419 14.9312 2.79419 13.2875 2.79419 10V10Z" stroke="white" stroke-width="2"/>
<path d="M11.1765 6.66602L11.1765 13.3327" stroke="white" stroke-width="2" stroke-linecap="square" stroke-linejoin="round"/>
<path d="M14.9019 10L7.45088 10" stroke="white" stroke-width="2" stroke-linecap="square" stroke-linejoin="round"/>
</svg>
