<svg width="35" height="28" viewBox="0 0 35 28" fill="none" xmlns="http://www.w3.org/2000/svg">
<path d="M33.2501 13.9337C33.2501 5.63696 25.7951 0 17.5 0C9.29252 0 1.75 5.51606 1.75 14.0244C0.700001 14.5382 0 15.5054 0 16.6237V19.6462C0 21.3086 1.575 22.6687 3.50001 22.6687C4.46251 22.6687 5.25001 21.9887 5.25001 21.1575V13.8884C5.25001 8.10029 10.4125 3.03761 17.115 2.87137C24.0451 2.69002 29.7501 7.49579 29.7501 13.4501V24.18H17.5C16.5375 24.18 15.75 24.86 15.75 25.6912C15.75 26.5224 16.5375 27.2025 17.5 27.2025H29.7501C31.6751 27.2025 33.2501 25.8424 33.2501 24.18V22.3363C34.2826 21.8678 35.0001 20.9459 35.0001 19.8578V16.3819C35.0001 15.3241 34.2826 14.4022 33.2501 13.9337Z" fill="#EEEEEE"/>
<path d="M12.2499 16.6238C13.2164 16.6238 13.9999 15.9472 13.9999 15.1126C13.9999 14.2779 13.2164 13.6013 12.2499 13.6013C11.2834 13.6013 10.4999 14.2779 10.4999 15.1126C10.4999 15.9472 11.2834 16.6238 12.2499 16.6238Z" fill="#EEEEEE"/>
<path d="M22.7501 16.6238C23.7166 16.6238 24.5001 15.9472 24.5001 15.1126C24.5001 14.2779 23.7166 13.6013 22.7501 13.6013C21.7836 13.6013 21 14.2779 21 15.1126C21 15.9472 21.7836 16.6238 22.7501 16.6238Z" fill="#EEEEEE"/>
<path d="M28 12.1357C27.16 7.82863 22.82 4.5341 17.5875 4.5341C12.2849 4.5341 6.57993 8.32734 7.03493 14.2817C11.3574 12.7553 14.6124 9.43055 15.5399 5.3804C17.8325 9.35499 22.54 12.0903 28 12.1357Z" fill="#EEEEEE"/>
</svg>
