<svg width="20" height="20" viewBox="0 0 20 20" fill="none" xmlns="http://www.w3.org/2000/svg">
<path d="M10 0C8.02219 0 6.08879 0.58649 4.4443 1.6853C2.79981 2.78412 1.51809 4.3459 0.761209 6.17317C0.00433285 8.00043 -0.193701 10.0111 0.192152 11.9509C0.578004 13.8907 1.53041 15.6725 2.92894 17.0711C4.32746 18.4696 6.10929 19.422 8.0491 19.8079C9.98891 20.1937 11.9996 19.9957 13.8268 19.2388C15.6541 18.4819 17.2159 17.2002 18.3147 15.5557C19.4135 13.9112 20 11.9778 20 10C19.997 7.34876 18.9425 4.80696 17.0678 2.93225C15.193 1.05754 12.6512 0.00300303 10 0ZM10 18.4615C8.32647 18.4615 6.69052 17.9653 5.29903 17.0355C3.90753 16.1057 2.823 14.7842 2.18256 13.2381C1.54213 11.6919 1.37456 9.99061 1.70105 8.34924C2.02754 6.70786 2.83343 5.20016 4.01679 4.01679C5.20016 2.83342 6.70786 2.02754 8.34924 1.70105C9.99062 1.37456 11.692 1.54212 13.2381 2.18256C14.7842 2.82299 16.1058 3.90753 17.0355 5.29902C17.9653 6.69051 18.4615 8.32647 18.4615 10C18.459 12.2434 17.5667 14.3941 15.9804 15.9804C14.3941 17.5667 12.2434 18.459 10 18.4615ZM12.5291 9.44394L9.23049 13.8456H12.3077C12.5117 13.8456 12.7074 13.9266 12.8516 14.0709C12.9959 14.2151 13.0769 14.4108 13.0769 14.6148C13.0769 14.8188 12.9959 15.0145 12.8516 15.1587C12.7074 15.303 12.5117 15.384 12.3077 15.384H7.72279C7.71261 15.3845 7.70241 15.3847 7.69222 15.3847C7.54802 15.3847 7.40675 15.3441 7.28449 15.2676C7.16223 15.1912 7.06392 15.0819 7.00075 14.9523C6.93758 14.8227 6.91211 14.6779 6.92723 14.5345C6.94234 14.3911 6.99745 14.2548 7.08625 14.1413L11.2856 8.53788C11.403 8.35918 11.4819 8.15796 11.5172 7.94706C11.5525 7.73617 11.5435 7.52023 11.4907 7.31301C11.438 7.10579 11.3426 6.91185 11.2107 6.74356C11.0788 6.57526 10.9132 6.4363 10.7246 6.33554C10.536 6.23479 10.3285 6.17444 10.1152 6.15836C9.90201 6.14228 9.68777 6.17082 9.48619 6.24215C9.2846 6.31348 9.1001 6.42604 8.94444 6.57265C8.78878 6.71926 8.66538 6.8967 8.58212 7.09365C8.54325 7.18738 8.48622 7.27249 8.41432 7.34409C8.34241 7.41568 8.25705 7.47234 8.16316 7.51081C8.06926 7.54927 7.96868 7.56878 7.86722 7.5682C7.76575 7.56763 7.6654 7.54699 7.57194 7.50746C7.47849 7.46794 7.39378 7.41032 7.32269 7.33792C7.2516 7.26551 7.19553 7.17976 7.15773 7.0856C7.11992 6.99144 7.10111 6.89073 7.1024 6.78926C7.10368 6.6878 7.12502 6.5876 7.1652 6.49442C7.33227 6.09909 7.5802 5.74307 7.89305 5.44925C8.2059 5.15542 8.57675 4.93029 8.98177 4.78831C9.3868 4.64633 9.81705 4.59065 10.2449 4.62484C10.6727 4.65902 11.0887 4.78233 11.466 4.98682C11.8433 5.19132 12.1737 5.47248 12.436 5.81226C12.6982 6.15204 12.8864 6.5429 12.9886 6.95976C13.0908 7.37661 13.1046 7.81023 13.0293 8.23275C12.9539 8.65527 12.791 9.05736 12.551 9.41317C12.544 9.42362 12.5367 9.43388 12.5291 9.44394Z" fill="#CA9703"/>
</svg>
