<svg width="22" height="22" viewBox="0 0 22 22" fill="none" xmlns="http://www.w3.org/2000/svg">
<path d="M12.958 3.08099L11.963 3.1805L11.9649 3.19969L11.9676 3.2188L12.958 3.08099ZM12.8556 2.45883L11.9283 2.83301L11.9283 2.83301L12.8556 2.45883ZM12.9581 3.08101L13.9531 2.98151L13.9512 2.96232L13.9485 2.94321L12.9581 3.08101ZM13.1548 4.1905L12.2849 4.68374L12.2849 4.68374L13.1548 4.1905ZM14.291 4.66114L14.0247 3.69726V3.69726L14.291 4.66114ZM15.2146 4.01571L14.5814 3.24175L14.5814 3.24175L15.2146 4.01571ZM15.727 3.64821L15.3358 2.72789L15.3358 2.72789L15.727 3.64821ZM16.5989 3.6917L16.1181 4.56853L16.1181 4.56853L16.5989 3.6917ZM17.0722 4.10836L17.7793 3.40125V3.40125L17.0722 4.10836ZM17.8912 4.92737L17.1841 5.63448V5.63448L17.8912 4.92737ZM18.3079 5.40062L17.431 5.88141L17.431 5.88141L18.3079 5.40062ZM18.3514 6.27257L17.431 5.88141L18.3514 6.27257ZM17.9838 6.78493L17.2099 6.1517V6.1517L17.9838 6.78493ZM17.3384 7.7086L16.3745 7.44227L17.3384 7.7086ZM17.809 8.84481L17.3158 9.7147V9.7147L17.809 8.84481ZM18.9186 9.04154L18.8191 10.0366H18.8191L18.9186 9.04154ZM19.5408 9.14398L19.1666 10.0713L19.1666 10.0713L19.5408 9.14398ZM20.1266 9.79127L21.0866 9.51122L21.0866 9.51121L20.1266 9.79127ZM20.1266 12.208L19.1666 11.928V11.928L20.1266 12.208ZM19.5407 12.8554L19.9148 13.7828L19.9148 13.7828L19.5407 12.8554ZM18.9187 12.9578L18.8192 11.9628H18.8192L18.9187 12.9578ZM17.8095 13.1544L17.3165 12.2844L17.3165 12.2844L17.8095 13.1544ZM17.3388 14.2909L16.375 14.5574V14.5574L17.3388 14.2909ZM17.984 15.2141L17.21 15.8474L17.21 15.8474L17.984 15.2141ZM18.3513 15.7263L19.2716 15.335V15.335L18.3513 15.7263ZM18.3078 16.5984L17.4311 16.1175L17.4311 16.1175L18.3078 16.5984ZM17.8913 17.0715L17.1842 16.3644L17.1842 16.3644L17.8913 17.0715ZM17.0722 17.8906L17.7793 18.5977H17.7793L17.0722 17.8906ZM17.0722 17.8906L17.7793 18.5977L17.7793 18.5977L17.0722 17.8906ZM16.599 18.3072L16.1182 17.4304L16.1182 17.4304L16.599 18.3072ZM15.727 18.3507L15.3359 19.2711L15.3359 19.2711L15.727 18.3507ZM15.2147 17.9832L15.8479 17.2093L15.8101 17.1783L15.7694 17.1512L15.2147 17.9832ZM15.2147 17.9832L14.5814 18.7572L14.6193 18.7881L14.66 18.8153L15.2147 17.9832ZM14.291 17.3378L14.0247 18.3017H14.0247L14.291 17.3378ZM13.1548 17.8084L14.0247 18.3017L14.0247 18.3017L13.1548 17.8084ZM12.9581 18.9181L11.963 18.8186V18.8186L12.9581 18.9181ZM12.8556 19.5406L13.7829 19.9149L13.7829 19.9149L12.8556 19.5406ZM12.2084 20.1263L12.4886 21.0863L12.4886 21.0863L12.2084 20.1263ZM9.79152 20.1263L9.51146 21.0863H9.51146L9.79152 20.1263ZM9.14422 19.5405L10.0716 19.1663L10.0716 19.1663L9.14422 19.5405ZM9.04178 18.9183L8.04675 19.0178L9.04178 18.9183ZM8.84505 17.8088L9.71493 17.3155V17.3155L8.84505 17.8088ZM7.70885 17.3382L7.44254 16.3743L7.70885 17.3382ZM6.78517 17.9836L7.38517 18.7836L7.40206 18.7709L7.4184 18.7576L6.78517 17.9836ZM6.78514 17.9836L6.18514 17.1836L6.16825 17.1963L6.1519 17.2097L6.78514 17.9836ZM6.27276 18.3512L5.88162 17.4308L6.27276 18.3512ZM5.40084 18.3077L5.88162 17.4308L5.88161 17.4308L5.40084 18.3077ZM4.92757 17.891L4.22046 18.5981L4.22046 18.5981L4.92757 17.891ZM4.92756 17.891L4.22045 18.5981H4.22045L4.92756 17.891ZM4.10857 17.072L4.81568 16.3649L4.81568 16.3649L4.10857 17.072ZM3.6919 16.5987L4.56874 16.1179H4.56874L3.6919 16.5987ZM3.64841 15.7268L2.72808 15.3356L2.72808 15.3356L3.64841 15.7268ZM4.01593 15.2144L4.78989 15.8476H4.78989L4.01593 15.2144ZM4.66138 14.2908L3.6975 14.0244L3.6975 14.0244L4.66138 14.2908ZM4.19074 13.1545L3.6975 14.0244L3.6975 14.0244L4.19074 13.1545ZM3.08123 12.9578L3.18074 11.9628L3.18073 11.9628L3.08123 12.9578ZM2.45908 12.8554L2.83325 11.928L2.83325 11.928L2.45908 12.8554ZM1.87326 12.2081L0.913276 12.4881L0.913277 12.4881L1.87326 12.2081ZM1.83325 11.5788H0.833252H1.83325ZM1.83325 10.4207H2.83325H1.83325ZM1.87329 9.7912L2.83325 10.0713H2.83325L1.87329 9.7912ZM2.45899 9.144L2.08473 8.21668H2.08473L2.45899 9.144ZM3.08134 9.04153V8.04153H3.03146L2.98183 8.04649L3.08134 9.04153ZM3.08134 9.04153V10.0415H3.13122L3.18085 10.0366L3.08134 9.04153ZM4.1912 8.84472L4.68456 9.71455L4.68456 9.71455L4.1912 8.84472ZM4.66176 7.70869L5.62568 7.44249L4.66176 7.70869ZM4.01609 6.78467L4.79005 6.15144L4.77224 6.12968L4.75324 6.10895L4.01609 6.78467ZM4.01609 6.78467L3.24213 7.41791L3.25993 7.43967L3.27893 7.4604L4.01609 6.78467ZM3.6484 6.27203L4.56878 5.881L4.56878 5.881L3.6484 6.27203ZM3.69188 5.40033L2.81498 4.91965L2.81498 4.91965L3.69188 5.40033ZM4.10872 4.92684L3.40162 4.21973L3.40162 4.21973L4.10872 4.92684ZM4.9276 4.10796L5.63471 4.81507L4.9276 4.10796ZM5.40088 3.69128L5.88166 4.56812L5.88166 4.56812L5.40088 3.69128ZM6.2728 3.64779L6.66394 2.72746L6.66394 2.72746L6.2728 3.64779ZM6.78526 4.01537L7.44377 3.26279L7.43131 3.25189L7.4185 3.24141L6.78526 4.01537ZM6.78526 4.01537L6.12676 4.76795L6.13922 4.77885L6.15203 4.78933L6.78526 4.01537ZM7.70874 4.66075L7.97521 3.6969L7.97521 3.6969L7.70874 4.66075ZM8.84517 4.19002L7.97521 3.6969L7.97521 3.6969L8.84517 4.19002ZM9.0418 3.08087L8.04676 2.98137V2.98137L9.0418 3.08087ZM9.14418 2.45892L8.21679 2.08483L8.21678 2.08483L9.14418 2.45892ZM9.79162 1.87299L10.0716 2.83301V2.83301L9.79162 1.87299ZM12.2083 1.87302L12.4884 0.913034L12.4884 0.913034L12.2083 1.87302ZM13.9531 2.98149C13.9272 2.72249 13.9032 2.38261 13.783 2.08465L11.9283 2.83301C11.914 2.79761 11.9167 2.78616 11.9259 2.84669C11.9361 2.91416 11.9457 3.00736 11.963 3.1805L13.9531 2.98149ZM13.9485 2.94321L13.9485 2.94319L11.9676 3.2188L11.9676 3.21882L13.9485 2.94321ZM14.0247 3.69726C14.0638 3.76624 14.0518 3.78898 14.0279 3.63989C14.0053 3.49901 13.9852 3.30271 13.9531 2.98151L11.963 3.18052C11.9926 3.47654 12.0189 3.74315 12.0531 3.9568C12.0861 4.16223 12.1416 4.43111 12.2849 4.68374L14.0247 3.69726ZM14.0247 3.69726L14.0247 3.69726L12.2849 4.68374C12.7371 5.48127 13.6736 5.8692 14.5573 5.62502L14.0247 3.69726ZM14.5814 3.24175C14.3316 3.44616 14.1786 3.57079 14.063 3.65442C13.9406 3.74293 13.9482 3.71838 14.0247 3.69726L14.5573 5.62502C14.8373 5.54767 15.0666 5.39681 15.2352 5.27486C15.4105 5.14803 15.6176 4.97806 15.8479 4.78967L14.5814 3.24175ZM15.3358 2.72789C15.0401 2.85357 14.7828 3.07693 14.5814 3.24175L15.8479 4.78967C15.9825 4.67949 16.0552 4.62038 16.1102 4.57989C16.1594 4.54356 16.1533 4.55361 16.1181 4.56853L15.3358 2.72789ZM17.0797 2.81487C16.5425 2.52026 15.8998 2.4882 15.3358 2.72789L16.1181 4.56853V4.56853L17.0797 2.81487ZM17.7793 3.40125C17.5952 3.2172 17.3615 2.96935 17.0797 2.81487L16.1181 4.56853C16.0847 4.55018 16.0796 4.53958 16.125 4.58063C16.1756 4.62639 16.242 4.69243 16.3651 4.81546L17.7793 3.40125ZM18.5983 4.22026L17.7793 3.40125L16.3651 4.81546L17.1841 5.63448L18.5983 4.22026ZM19.1847 4.91984C19.0302 4.63811 18.7824 4.40431 18.5983 4.22026L17.1841 5.63448C17.3071 5.75751 17.3732 5.82398 17.4189 5.8746C17.46 5.92001 17.4494 5.91488 17.431 5.88141L19.1847 4.91984ZM19.2717 6.66372C19.5114 6.09979 19.4793 5.45711 19.1847 4.91983L17.431 5.88141V5.88141L19.2717 6.66372ZM18.7578 7.41817C18.9226 7.21672 19.146 6.95943 19.2717 6.66372L17.431 5.88141C17.446 5.84629 17.456 5.84013 17.4197 5.8894C17.3792 5.94432 17.3201 6.01703 17.2099 6.1517L18.7578 7.41817ZM18.3023 7.97492C18.2812 8.05135 18.2566 8.05896 18.3451 7.93662C18.4288 7.82101 18.5534 7.66801 18.7578 7.41817L17.2099 6.1517C17.0215 6.38196 16.8515 6.58904 16.7247 6.76436C16.6027 6.93294 16.4519 7.16234 16.3745 7.44227L18.3023 7.97492ZM18.3023 7.97492V7.97492L16.3745 7.44227C16.1303 8.32595 16.5183 9.26249 17.3158 9.7147L18.3023 7.97492ZM19.0181 8.0465C18.6969 8.01438 18.5005 7.99433 18.3597 7.97171C18.2106 7.94779 18.2333 7.93581 18.3023 7.97492L17.3158 9.7147C17.5684 9.85795 17.8373 9.91348 18.0428 9.94645C18.2564 9.98073 18.523 10.007 18.8191 10.0366L19.0181 8.0465ZM19.915 8.21662C19.617 8.09639 19.2771 8.0724 19.0181 8.0465L18.8191 10.0366C18.9922 10.0539 19.0854 10.0635 19.1529 10.0737C19.2134 10.0829 19.202 10.0856 19.1666 10.0713L19.915 8.21662ZM21.0866 9.51121C20.9149 8.923 20.4832 8.4459 19.915 8.21662L19.1666 10.0713L19.1666 10.0713L21.0866 9.51121ZM21.1666 10.4206C21.1666 10.1603 21.1765 9.81967 21.0866 9.51122L19.1666 10.0713C19.1559 10.0347 19.1598 10.0236 19.1629 10.0847C19.1663 10.1529 19.1666 10.2466 19.1666 10.4206H21.1666ZM21.1666 11.5789V10.4206H19.1666V11.5789H21.1666ZM21.0866 12.488C21.1765 12.1796 21.1666 11.8391 21.1666 11.5789H19.1666C19.1666 11.7528 19.1663 11.8465 19.1629 11.9146C19.1598 11.9758 19.1559 11.9647 19.1666 11.928L21.0866 12.488ZM19.9148 13.7828C20.4832 13.5535 20.915 13.0763 21.0866 12.488L19.1666 11.928V11.928L19.9148 13.7828ZM19.0182 13.9528C19.2771 13.9269 19.6169 13.903 19.9148 13.7828L19.1666 11.928C19.202 11.9137 19.2134 11.9165 19.1529 11.9256C19.0854 11.9358 18.9923 11.9455 18.8192 11.9628L19.0182 13.9528ZM18.3026 14.0244C18.2337 14.0635 18.2109 14.0515 18.36 14.0276C18.5008 14.005 18.6971 13.9849 19.0182 13.9528L18.8192 11.9628C18.5232 11.9924 18.2567 12.0186 18.0431 12.0529C17.8378 12.0858 17.569 12.1413 17.3165 12.2844L18.3026 14.0244ZM18.3026 14.0244V14.0244L17.3165 12.2844C16.5186 12.7366 16.1306 13.6735 16.375 14.5574L18.3026 14.0244ZM18.7579 14.5809C18.5536 14.3312 18.429 14.1782 18.3454 14.0627C18.257 13.9404 18.2815 13.948 18.3026 14.0244L16.375 14.5574C16.4523 14.8372 16.6031 15.0665 16.725 15.235C16.8518 15.4102 17.0217 15.6172 17.21 15.8474L18.7579 14.5809ZM19.2716 15.335C19.146 15.0394 18.9227 14.7823 18.7579 14.5809L17.21 15.8474C17.3202 15.982 17.3792 16.0546 17.4197 16.1095C17.456 16.1588 17.446 16.1526 17.4311 16.1175L19.2716 15.335ZM19.1846 17.0793C19.4794 16.5419 19.5114 15.899 19.2716 15.335L17.4311 16.1175L19.1846 17.0793ZM18.5985 17.7786C18.7824 17.5946 19.0302 17.3609 19.1846 17.0793L17.4311 16.1175C17.4494 16.0841 17.46 16.079 17.419 16.1243C17.3732 16.1749 17.3072 16.2414 17.1842 16.3644L18.5985 17.7786ZM17.7793 18.5977L18.5985 17.7786L17.1842 16.3644L16.3651 17.1835L17.7793 18.5977ZM17.7793 18.5977L17.7793 18.5977L16.3651 17.1835L16.3651 17.1835L17.7793 18.5977ZM17.0798 19.1841C17.3615 19.0296 17.5953 18.7817 17.7793 18.5977L16.3651 17.1835C16.2421 17.3065 16.1756 17.3726 16.125 17.4183C16.0796 17.4594 16.0847 17.4488 16.1182 17.4304L17.0798 19.1841ZM15.3359 19.2711C15.8998 19.5107 16.5425 19.4787 17.0798 19.1841L16.1182 17.4304H16.1182L15.3359 19.2711ZM14.5814 18.7572C14.7829 18.922 15.0402 19.1454 15.3359 19.2711L16.1182 17.4304C16.1533 17.4453 16.1595 17.4554 16.1102 17.4191C16.0553 17.3786 15.9826 17.3195 15.8479 17.2093L14.5814 18.7572ZM14.66 18.8153L14.66 18.8153L15.7694 17.1512L15.7694 17.1512L14.66 18.8153ZM14.0247 18.3017C13.9483 18.2806 13.9407 18.256 14.063 18.3445C14.1786 18.4281 14.3316 18.5528 14.5814 18.7572L15.8479 17.2093C15.6177 17.0209 15.4106 16.8509 15.2353 16.7241C15.0667 16.6021 14.8373 16.4513 14.5574 16.3739L14.0247 18.3017ZM14.0247 18.3017L14.0247 18.3017L14.5574 16.3739C13.6737 16.1297 12.7371 16.5177 12.2849 17.3152L14.0247 18.3017ZM13.9531 19.0176C13.9852 18.6964 14.0053 18.5 14.0279 18.3591C14.0518 18.2099 14.0638 18.2327 14.0247 18.3017L12.2849 17.3152C12.1417 17.5678 12.0861 17.8368 12.0532 18.0422C12.0189 18.2559 11.9926 18.5225 11.963 18.8186L13.9531 19.0176ZM13.7829 19.9149C13.9032 19.6168 13.9272 19.2768 13.9531 19.0176L11.963 18.8186C11.9457 18.9919 11.9361 19.0851 11.9259 19.1526C11.9167 19.2132 11.914 19.2018 11.9283 19.1663L13.7829 19.9149ZM12.4886 21.0863C13.0766 20.9146 13.5536 20.483 13.7829 19.9149L11.9283 19.1663L11.9283 19.1663L12.4886 21.0863ZM11.5789 21.1663C11.8393 21.1663 12.18 21.1763 12.4886 21.0863L11.9283 19.1663C11.9649 19.1556 11.976 19.1595 11.9149 19.1626C11.8467 19.166 11.753 19.1663 11.5789 19.1663V21.1663ZM10.4208 21.1663H11.5789V19.1663H10.4208V21.1663ZM9.51146 21.0863C9.81992 21.1763 10.1605 21.1663 10.4208 21.1663V19.1663C10.2468 19.1663 10.1531 19.166 10.0849 19.1626C10.0238 19.1595 10.0349 19.1557 10.0716 19.1663L9.51146 21.0863ZM8.21687 19.9147C8.44614 20.4829 8.92324 20.9147 9.51146 21.0863L10.0716 19.1663L8.21687 19.9147ZM8.04675 19.0178C8.07265 19.2768 8.09663 19.6167 8.21687 19.9147L10.0716 19.1663C10.0859 19.2017 10.0831 19.2132 10.074 19.1527C10.0638 19.0852 10.0541 18.992 10.0368 18.8188L8.04675 19.0178ZM7.97517 18.302C7.93605 18.2331 7.94803 18.2103 7.97196 18.3594C7.99457 18.5003 8.01463 18.6966 8.04675 19.0178L10.0368 18.8188C10.0072 18.5228 9.98098 18.2562 9.94669 18.0425C9.91372 17.8371 9.85819 17.5682 9.71493 17.3155L7.97517 18.302ZM7.97517 18.302H7.97517L9.71493 17.3155C9.26272 16.518 8.32621 16.1301 7.44254 16.3743L7.97517 18.302ZM7.4184 18.7576C7.66825 18.5532 7.82125 18.4285 7.93686 18.3449C8.05921 18.2564 8.0516 18.2809 7.97517 18.302L7.44254 16.3743C7.1626 16.4516 6.9332 16.6025 6.76461 16.7244C6.58928 16.8513 6.3822 17.0213 6.15193 17.2097L7.4184 18.7576ZM7.38515 18.7836L7.38517 18.7836L6.18517 17.1836L6.18515 17.1836L7.38515 18.7836ZM7.38514 18.7836L7.38515 18.7836L6.18515 17.1836L6.18514 17.1836L7.38514 18.7836ZM6.6639 19.2715C6.95962 19.1458 7.21692 18.9224 7.41838 18.7576L6.1519 17.2097C6.01723 17.3199 5.94452 17.379 5.8896 17.4195C5.84033 17.4558 5.84649 17.4458 5.88162 17.4308L6.6639 19.2715ZM4.92006 19.1845C5.45733 19.4791 6.09999 19.5111 6.6639 19.2715L5.88162 17.4308H5.88162L4.92006 19.1845ZM4.22046 18.5981C4.40451 18.7822 4.63832 19.03 4.92007 19.1845L5.88161 17.4308C5.91508 17.4492 5.92021 17.4598 5.8748 17.4187C5.82418 17.373 5.75771 17.3069 5.63467 17.1839L4.22046 18.5981ZM4.22045 18.5981L4.22046 18.5981L5.63467 17.1839L5.63467 17.1839L4.22045 18.5981ZM3.40147 17.7791L4.22045 18.5981L5.63467 17.1839L4.81568 16.3649L3.40147 17.7791ZM2.81506 17.0795C2.96954 17.3612 3.21741 17.595 3.40147 17.7791L4.81568 16.3649C4.69264 16.2418 4.62659 16.1754 4.58083 16.1248C4.53978 16.0793 4.55039 16.0845 4.56874 16.1179L2.81506 17.0795ZM2.72808 15.3356C2.48841 15.8996 2.52046 16.5422 2.81506 17.0795L4.56874 16.1179L4.56874 16.1179L2.72808 15.3356ZM3.24197 14.5812C3.07714 14.7826 2.85376 15.0399 2.72808 15.3356L4.56874 16.1179C4.55381 16.1531 4.54376 16.1592 4.5801 16.11C4.62059 16.055 4.6797 15.9823 4.78989 15.8476L3.24197 14.5812ZM3.6975 14.0244C3.71862 13.948 3.74317 13.9404 3.65466 14.0627C3.57102 14.1783 3.44639 14.3313 3.24197 14.5812L4.78989 15.8476C4.97829 15.6174 5.14826 15.4103 5.27509 15.235C5.39705 15.0664 5.54791 14.837 5.62526 14.5571L3.6975 14.0244ZM3.6975 14.0244L3.6975 14.0244L5.62526 14.5571C5.86944 13.6734 5.4815 12.7368 4.68398 12.2846L3.6975 14.0244ZM2.98173 13.9528C3.30293 13.985 3.49924 14.005 3.64012 14.0276C3.78922 14.0516 3.76647 14.0635 3.6975 14.0244L4.68398 12.2846C4.43135 12.1414 4.16247 12.0859 3.95703 12.0529C3.74338 12.0186 3.47677 11.9924 3.18074 11.9628L2.98173 13.9528ZM2.0849 13.7827C2.38286 13.903 2.72273 13.9269 2.98173 13.9528L3.18073 11.9628C3.0076 11.9455 2.9144 11.9358 2.84693 11.9256C2.7864 11.9165 2.79786 11.9137 2.83325 11.928L2.0849 13.7827ZM0.913277 12.4881C1.08487 13.0763 1.51666 13.5535 2.0849 13.7827L2.83325 11.928L2.83325 11.928L0.913277 12.4881ZM0.833252 11.5788C0.833252 11.8391 0.8233 12.1797 0.913276 12.4881L2.83325 11.928C2.84394 11.9647 2.84007 11.9758 2.83698 11.9146C2.83355 11.8465 2.83325 11.7528 2.83325 11.5788H0.833252ZM0.833252 10.4207L0.833252 11.5788H2.83325V10.4207H0.833252ZM0.913329 9.51107C0.823294 9.8196 0.833252 10.1603 0.833252 10.4207H2.83325C2.83325 10.2466 2.83355 10.1529 2.83699 10.0847C2.84007 10.0235 2.84395 10.0347 2.83325 10.0713L0.913329 9.51107ZM2.08473 8.21668C1.51663 8.44596 1.08494 8.92297 0.913329 9.51107L2.83325 10.0713H2.83325L2.08473 8.21668ZM2.98183 8.04649C2.72276 8.0724 2.38277 8.09639 2.08473 8.21668L2.83325 10.0713C2.79785 10.0856 2.78639 10.0829 2.84693 10.0737C2.91442 10.0635 3.00766 10.0539 3.18084 10.0366L2.98183 8.04649ZM3.08134 8.04153H3.08134V10.0415H3.08134V8.04153ZM3.69784 7.97489C3.76684 7.93576 3.78959 7.94774 3.64045 7.97168C3.49952 7.9943 3.30315 8.01436 2.98184 8.04649L3.18085 10.0366C3.47698 10.007 3.74368 9.98071 3.95739 9.94641C4.1629 9.91343 4.43186 9.85787 4.68456 9.71455L3.69784 7.97489ZM3.69784 7.97489L3.69784 7.97489L4.68456 9.71455C5.48185 9.26233 5.86968 8.32602 5.62568 7.44249L3.69784 7.97489ZM3.24213 7.41791C3.44663 7.66785 3.57131 7.82091 3.65498 7.93657C3.74352 8.05897 3.71896 8.05136 3.69784 7.97489L5.62568 7.44249C5.54834 7.16245 5.39742 6.93297 5.27543 6.76433C5.14856 6.58895 4.97852 6.38179 4.79005 6.15144L3.24213 7.41791ZM3.27893 7.4604L3.27893 7.4604L4.75324 6.10895L4.75324 6.10895L3.27893 7.4604ZM2.72802 6.66306C2.85372 6.95892 3.07722 7.21635 3.24213 7.41791L4.79004 6.15143C4.6798 6.01669 4.62066 5.94395 4.58015 5.88899C4.54379 5.83969 4.55385 5.84585 4.56878 5.881L2.72802 6.66306ZM2.81498 4.91965C2.52054 5.45681 2.48849 6.09928 2.72802 6.66306L4.56878 5.881L2.81498 4.91965ZM3.40162 4.21973C3.21748 4.40387 2.96949 4.63777 2.81498 4.91965L4.56878 5.881C4.55042 5.91448 4.53981 5.91961 4.58088 5.87418C4.62666 5.82353 4.69274 5.75704 4.81583 5.63395L3.40162 4.21973ZM4.22049 3.40086L3.40162 4.21973L4.81583 5.63395L5.63471 4.81507L4.22049 3.40086ZM4.92011 2.81443C4.63836 2.96891 4.40455 3.21679 4.22049 3.40086L5.63471 4.81507C5.75775 4.69203 5.82422 4.62598 5.87484 4.58022C5.92026 4.53916 5.91513 4.54977 5.88166 4.56812L4.92011 2.81443ZM6.66394 2.72746C6.10003 2.48779 5.45737 2.51985 4.9201 2.81443L5.88166 4.56812L5.88166 4.56812L6.66394 2.72746ZM7.4185 3.24141C7.217 3.07655 6.95966 2.85314 6.66394 2.72746L5.88166 4.56812C5.84652 4.55318 5.84036 4.54314 5.88966 4.57949C5.9446 4.62 6.01733 4.67912 6.15202 4.78933L7.4185 3.24141ZM7.44377 3.2628L7.44377 3.26279L6.12676 4.76795L6.12676 4.76795L7.44377 3.2628ZM7.97521 3.6969C8.05162 3.71803 8.05923 3.74257 7.93689 3.65405C7.82129 3.57042 7.6683 3.4458 7.4185 3.24142L6.15203 4.78933C6.38226 4.9777 6.5893 5.14765 6.76458 5.27445C6.9331 5.39638 7.16243 5.54722 7.44228 5.62459L7.97521 3.6969ZM7.97521 3.6969L7.97521 3.6969L7.44228 5.62459C8.32613 5.86894 9.26293 5.48091 9.71513 4.68314L7.97521 3.6969ZM8.04676 2.98137C8.01465 3.30246 7.9946 3.49871 7.972 3.63954C7.94809 3.78859 7.93612 3.76586 7.97521 3.6969L9.71513 4.68314C9.85829 4.43058 9.91379 4.16179 9.94674 3.95641C9.98101 3.74284 10.0072 3.47631 10.0368 3.18037L8.04676 2.98137ZM8.21678 2.08483C8.09663 2.3827 8.07265 2.72246 8.04676 2.98137L10.0368 3.18038C10.0541 3.0073 10.0638 2.91413 10.074 2.84668C10.0831 2.78617 10.0858 2.79762 10.0716 2.83301L8.21678 2.08483ZM9.51167 0.91298C8.92329 1.08456 8.44606 1.51644 8.21679 2.08483L10.0716 2.83301V2.83301L9.51167 0.91298ZM10.4207 0.833008C10.1605 0.833008 9.82001 0.823062 9.51167 0.91298L10.0716 2.83301C10.0349 2.84369 10.0238 2.83982 10.0849 2.83674C10.1531 2.8333 10.2467 2.83301 10.4207 2.83301V0.833008ZM11.579 0.833008H10.4207V2.83301H11.579V0.833008ZM12.4884 0.913034C12.1799 0.823056 11.8393 0.833008 11.579 0.833008V2.83301C11.753 2.83301 11.8467 2.8333 11.9149 2.83674C11.976 2.83982 11.9649 2.8437 11.9283 2.83301L12.4884 0.913034ZM13.783 2.08466C13.5537 1.51641 13.0766 1.08463 12.4884 0.913034L11.9283 2.83301L11.9283 2.83301L13.783 2.08466ZM13.6666 10.9997C13.6666 12.4724 12.4727 13.6663 10.9999 13.6663V15.6663C13.5772 15.6663 15.6666 13.577 15.6666 10.9997H13.6666ZM10.9999 8.33301C12.4727 8.33301 13.6666 9.52692 13.6666 10.9997H15.6666C15.6666 8.42235 13.5772 6.33301 10.9999 6.33301V8.33301ZM8.33325 10.9997C8.33325 9.52692 9.52716 8.33301 10.9999 8.33301V6.33301C8.42259 6.33301 6.33325 8.42235 6.33325 10.9997H8.33325ZM10.9999 13.6663C9.52716 13.6663 8.33325 12.4724 8.33325 10.9997H6.33325C6.33325 13.577 8.42259 15.6663 10.9999 15.6663V13.6663Z" fill="#CA9703"/>
</svg>
